<svg aria-hidden="true" style="position: absolute; width: 0; height: 0; overflow: hidden;" version="1.1" xmlns="http://www.w3.org/2000/svg" xmlns:xlink="http://www.w3.org/1999/xlink">
<defs>
<symbol id="icon-embed" viewBox="0 0 32 32">
<path d="M18.36 27.803h-1.049v-5.141c0-0.29-0.235-0.524-0.524-0.524s-0.524 0.235-0.524 0.524v0 5.141h-13.64v-10.492h4.365c0.29 0 0.524-0.235 0.524-0.524s-0.235-0.524-0.524-0.524h-4.889c-0 0-0 0-0 0-0.29 0-0.524 0.235-0.524 0.524v0 11.016h-1.049c-0.29 0-0.524 0.235-0.524 0.524v0 1.049c0 1.449 1.174 2.623 2.623 2.623v0h13.639c1.449 0 2.623-1.174 2.623-2.623v-1.049c0-0.29-0.235-0.524-0.524-0.524v0zM17.836 29.377c0 0.869-0.704 1.574-1.573 1.574h-1.049v-0.524c0-0.29-0.235-0.525-0.525-0.525s-0.525 0.235-0.525 0.525v0 0.524h-9.443v-0.524c0-0.29-0.235-0.524-0.524-0.524s-0.524 0.235-0.524 0.524v0.524h-1.050c-0.869 0-1.573-0.704-1.574-1.573v-0.525h16.787v0.524zM27.279 3.672h1.049c0.29 0 0.524-0.235 0.524-0.524s-0.235-0.524-0.524-0.524h-1.049c-0.869 0-1.573 0.704-1.573 1.573v0.525h-0.525c-0.29 0-0.524 0.235-0.524 0.524s0.235 0.524 0.524 0.524h0.524v1.574c0 0.29 0.235 0.524 0.524 0.524s0.524-0.235 0.524-0.524v0-1.574h0.525c0.29 0 0.525-0.235 0.525-0.525s-0.235-0.525-0.525-0.525v0h-0.524v-0.524c0-0.29 0.235-0.524 0.524-0.524z"></path>
<path d="M29.902 0.524h-6.295c-0.869 0-1.574 0.705-1.574 1.574v1.049c0 0.29 0.235 0.524 0.524 0.524s0.524-0.235 0.524-0.524v0-1.049c0-0.29 0.235-0.525 0.524-0.525h6.296c0.29 0 0.524 0.235 0.524 0.524v6.295c0 0.29-0.235 0.524-0.524 0.524v0h-6.296c-0.29 0-0.524-0.235-0.524-0.524v0-3.148c0-0.29-0.235-0.525-0.525-0.525s-0.525 0.235-0.525 0.525v0 3.148c0 0.869 0.704 1.574 1.573 1.574h6.296c0.869-0 1.573-0.704 1.573-1.573v-6.296c-0-0.869-0.704-1.573-1.573-1.573h-0zM24.656 21.508c0 1.159 0.939 2.098 2.098 2.098s2.098-0.939 2.098-2.098v0c0-1.159-0.939-2.098-2.098-2.098s-2.098 0.939-2.098 2.098v0zM27.803 21.508c0 0.579-0.47 1.049-1.049 1.049s-1.049-0.47-1.049-1.049v0c0-0.579 0.47-1.049 1.049-1.049s1.049 0.47 1.049 1.049v0z"></path>
<path d="M29.902 16.787h-6.295c-0.869 0-1.574 0.705-1.574 1.574v0 6.295c0 0.869 0.704 1.574 1.573 1.574h6.296c0.869-0 1.573-0.704 1.573-1.573v-1.049c0-0.29-0.235-0.524-0.524-0.524s-0.524 0.235-0.524 0.524v1.049c0 0.29-0.235 0.524-0.524 0.524v0h-6.296c-0.29 0-0.524-0.235-0.524-0.524v0-6.295c0-0.289 0.235-0.524 0.524-0.524h6.295c0.29 0 0.524 0.235 0.524 0.524v3.148c0 0.29 0.235 0.524 0.524 0.524s0.524-0.235 0.524-0.524v0-3.148c-0-0.869-0.704-1.573-1.573-1.573h-0zM11.788 6.741c0.078 0.049 0.174 0.078 0.276 0.078 0.087 0 0.169-0.021 0.241-0.059l-0.003 0.001 3.148-1.573c0.171-0.089 0.286-0.264 0.286-0.467s-0.115-0.378-0.283-0.466l-0.003-0.001-3.148-1.573c-0.069-0.035-0.15-0.056-0.236-0.056-0.289 0-0.524 0.234-0.524 0.523v3.148c0 0.181 0.093 0.35 0.247 0.446zM12.59 3.997l1.448 0.724-1.448 0.724v-1.448z"></path>
<path d="M13.115 9.443c2.608 0 4.721-2.114 4.721-4.721s-2.114-4.721-4.721-4.721c-2.608 0-4.721 2.114-4.721 4.721s2.114 4.721 4.721 4.721zM13.115 1.049c2.028 0 3.672 1.644 3.672 3.672s-1.644 3.672-3.672 3.672v0c-2.028 0-3.672-1.644-3.672-3.672s1.644-3.672 3.672-3.672v0zM18.36 11.541c0.165 0 0.321-0.078 0.42-0.21l1.573-2.098c0.066-0.087 0.105-0.196 0.105-0.315 0-0.29-0.235-0.525-0.525-0.525-0.171 0-0.323 0.082-0.419 0.208l-0.001 0.001-1.573 2.099c-0.065 0.087-0.105 0.196-0.105 0.315 0 0.29 0.235 0.524 0.524 0.524h0zM19.515 13.43c0.097 0.128 0.249 0.21 0.419 0.21 0.119 0 0.229-0.040 0.316-0.106l-0.001 0.001 2.098-1.573c0.128-0.097 0.21-0.249 0.21-0.42 0-0.29-0.235-0.525-0.525-0.525-0.119 0-0.228 0.039-0.316 0.106l0.001-0.001-2.099 1.573c-0.128 0.097-0.21 0.249-0.21 0.42 0 0.119 0.040 0.228 0.106 0.316l-0.001-0.001zM24.656 14.584c-0.046-0.247-0.259-0.432-0.516-0.432-0.040 0-0.079 0.005-0.117 0.013l0.003-0.001-2.623 0.524c-0.264 0.031-0.467 0.254-0.467 0.524 0 0.291 0.236 0.527 0.527 0.527 0.016 0 0.032-0.001 0.047-0.002l-0.002 0h0.105l2.623-0.524c0.247-0.046 0.432-0.259 0.432-0.516 0-0.040-0.005-0.079-0.013-0.117l0.001 0.004zM0.524 14.689h6.295c0.29 0 0.524-0.235 0.524-0.524v0-8.394c0-0.29-0.235-0.524-0.524-0.524v0h-6.295c-0.289 0-0.524 0.235-0.524 0.524v8.393c0 0.29 0.235 0.524 0.524 0.524zM1.049 6.296h5.246v7.344h-5.246v-7.345z"></path>
<path d="M4.721 7.344h-1.049c-0.29 0-0.524 0.235-0.524 0.524s0.235 0.524 0.524 0.524h1.049c0.29 0 0.524-0.235 0.524-0.524s-0.235-0.524-0.524-0.524v0zM4.721 9.442h-2.098c-0.29 0-0.525 0.235-0.525 0.525s0.235 0.525 0.525 0.525h2.098c0.29 0 0.525-0.235 0.525-0.525s-0.235-0.525-0.525-0.525v0zM4.721 11.541h-2.098c-0.29 0-0.524 0.235-0.524 0.524s0.235 0.524 0.524 0.524h2.098c0.29 0 0.524-0.235 0.524-0.524s-0.235-0.524-0.524-0.524v0zM17.899 14.531c-0.093-0.159-0.262-0.264-0.456-0.264-0.291 0-0.526 0.236-0.526 0.526 0 0.097 0.026 0.187 0.071 0.265l-0.001-0.002 2.313 4.003-8.393 3.148h-0.079l-2.272 1.312c-0.15 0.088-0.331 0.14-0.524 0.14-0.386 0-0.723-0.208-0.905-0.519l-0.003-0.005-1.049-1.815c-0.075-0.141-0.119-0.307-0.119-0.485 0-0.381 0.203-0.714 0.507-0.898l0.005-0.003 1.815-1.049 1.312 2.271c0.092 0.158 0.261 0.262 0.454 0.262 0.001 0 0.002 0 0.002 0h-0c0.001 0 0.001 0 0.002 0 0.29 0 0.524-0.235 0.524-0.524 0-0.097-0.026-0.187-0.072-0.265l0.001 0.002-1.353-2.34 6.584-5.429 0.215 0.372c0.093 0.159 0.262 0.264 0.456 0.264 0.291 0 0.526-0.236 0.526-0.526 0-0.097-0.026-0.187-0.071-0.265l0.001 0.002-0.524-0.908c-0.078-0.131-0.207-0.224-0.359-0.251l-0.003-0c-0.029-0.006-0.063-0.009-0.097-0.009-0.127 0-0.243 0.045-0.334 0.12l0.001-0.001-7.344 6.053-2.235 1.291c-0.628 0.37-1.042 1.043-1.042 1.813 0 0.201 0.028 0.394 0.081 0.578l-0.004-0.015-0.524 0.299c-0.475 0.277-0.789 0.784-0.789 1.364 0 0.869 0.705 1.574 1.574 1.574 0.001 0 0.001 0 0.002 0h-0c0.29-0.001 0.561-0.079 0.795-0.214l-0.008 0.004 0.524-0.299c0.37 0.382 0.888 0.619 1.462 0.619 0.002 0 0.005 0 0.007 0h-0c0.001 0 0.003 0 0.004 0 0.385 0 0.746-0.105 1.054-0.289l-0.010 0.005 0.457-0.262 1.049 1.82c0.277 0.473 0.783 0.786 1.362 0.786 0.288 0 0.559-0.078 0.791-0.213l-0.008 0.004c0.474-0.277 0.788-0.784 0.788-1.364 0-0.29-0.078-0.562-0.215-0.795l0.004 0.007-0.955-1.662 7.869-2.954c0.201-0.076 0.341-0.268 0.341-0.491 0-0.095-0.025-0.184-0.070-0.261l0.001 0.003-2.612-4.532zM5.508 23.496c-0.075 0.044-0.166 0.070-0.263 0.070-0.048 0-0.095-0.007-0.14-0.019l0.004 0.001c-0.137-0.036-0.25-0.123-0.319-0.239l-0.001-0.002c-0.044-0.075-0.071-0.166-0.071-0.263 0-0.194 0.106-0.364 0.262-0.454l0.003-0.001 0.456-0.262 0.524 0.908-0.456 0.262zM12.412 24.965c0.069 0.12 0.088 0.264 0.052 0.399-0.039 0.136-0.127 0.246-0.244 0.313l-0.003 0.001c-0.075 0.044-0.165 0.070-0.261 0.070-0.192 0-0.359-0.103-0.451-0.256l-0.001-0.002-1.049-1.82 0.871-0.498h0.042l1.044 1.794z"></path>
</symbol>
<symbol id="icon-boost-exposure" viewBox="0 0 32 32">
<path d="M28.667 12h-6.667c-0.368 0-0.667 0.298-0.667 0.667s0.298 0.667 0.667 0.667v0h6.667c1.103 0 2 0.897 2 2v13.333c0 1.103-0.897 2-2 2h-13.333c-1.104-0.001-1.999-0.896-2-2v-5.333c0-0.368-0.298-0.667-0.667-0.667s-0.667 0.298-0.667 0.667v0 5.333c0 1.837 1.496 3.333 3.333 3.333h13.333c1.837 0 3.333-1.496 3.333-3.333v-13.333c0-1.837-1.496-3.333-3.333-3.333zM10 18.667h-0.667c-0.368 0-0.667 0.298-0.667 0.667s0.298 0.667 0.667 0.667v0h0.667c0.368 0 0.667-0.298 0.667-0.667s-0.298-0.667-0.667-0.667v0zM3.921 0h-0.588c-0 0-0 0-0 0-0.333 0-0.656 0.049-0.96 0.139l0.024-0.006c-0.28 0.084-0.48 0.34-0.48 0.642 0 0.066 0.010 0.131 0.028 0.191l-0.001-0.005c0.084 0.279 0.339 0.479 0.64 0.479 0.067 0 0.131-0.010 0.192-0.028l-0.005 0.001c0.181-0.053 0.369-0.080 0.561-0.080h0.588c0.368 0 0.667-0.298 0.667-0.667s-0.298-0.667-0.667-0.667v0zM1.333 16.076v-1.348c0-0.368-0.298-0.667-0.667-0.667s-0.667 0.298-0.667 0.667v0 1.348c0 0.368 0.298 0.667 0.667 0.667s0.667-0.298 0.667-0.667v0zM0.667 12.699c0.368 0 0.667-0.298 0.667-0.667v0-1.348c0-0.368-0.298-0.667-0.667-0.667s-0.667 0.298-0.667 0.667v0 1.348c0 0.368 0.298 0.667 0.667 0.667v0zM0.667 4.612c0.368 0 0.667-0.298 0.667-0.667v0-0.612c0-0.185 0.025-0.368 0.075-0.544 0.016-0.054 0.025-0.117 0.025-0.182 0-0.303-0.203-0.559-0.481-0.64l-0.005-0.001c-0.055-0.017-0.118-0.026-0.184-0.026-0.303 0-0.559 0.204-0.637 0.481l-0.001 0.005c-0.080 0.272-0.125 0.584-0.126 0.906v0.612c0 0.368 0.298 0.667 0.667 0.667v0zM0.667 8.656c0.368 0 0.667-0.298 0.667-0.667v0-1.348c0-0.368-0.298-0.667-0.667-0.667s-0.667 0.298-0.667 0.667v0 1.348c0 0.368 0.298 0.667 0.667 0.667v0zM2.787 18.591c-0.338-0.099-0.628-0.274-0.861-0.505l0 0c-0.121-0.12-0.287-0.194-0.47-0.194-0.185 0-0.352 0.075-0.473 0.196l-0 0c-0.12 0.12-0.194 0.287-0.194 0.47 0 0.185 0.075 0.352 0.197 0.473l0 0c0.389 0.387 0.873 0.679 1.414 0.837l0.024 0.006c0.055 0.016 0.117 0.025 0.182 0.025 0.303 0 0.559-0.202 0.639-0.479l0.001-0.005c0.016-0.055 0.026-0.118 0.026-0.183 0-0.303-0.203-0.559-0.48-0.639l-0.005-0.001zM19.225 3.248c0.061 0 0.124-0.008 0.187-0.028 0.28-0.083 0.48-0.338 0.48-0.64 0-0.067-0.010-0.131-0.028-0.191l0.001 0.005c-0.169-0.563-0.464-1.045-0.854-1.431l-0-0c-0.12-0.119-0.286-0.193-0.468-0.193-0.186 0-0.353 0.076-0.474 0.198l-0 0c-0.119 0.12-0.192 0.286-0.192 0.468 0 0.185 0.076 0.353 0.197 0.474l0 0c0.24 0.24 0.419 0.536 0.512 0.858 0.085 0.291 0.351 0.48 0.64 0.48zM16.052 0h-1.348c-0.368 0-0.667 0.298-0.667 0.667s0.298 0.667 0.667 0.667v0h1.348c0.368 0 0.667-0.298 0.667-0.667s-0.298-0.667-0.667-0.667v0zM6.639 18.667h-1.348c-0.368 0-0.667 0.298-0.667 0.667s0.298 0.667 0.667 0.667v0h1.348c0.368 0 0.667-0.298 0.667-0.667s-0.298-0.667-0.667-0.667v0zM19.333 4.6c-0.368 0-0.667 0.298-0.667 0.667v0 1.348c0 0.368 0.298 0.667 0.667 0.667s0.667-0.298 0.667-0.667v0-1.348c0-0.369-0.299-0.667-0.667-0.667zM12.009 0h-1.348c-0.368 0-0.667 0.298-0.667 0.667s0.298 0.667 0.667 0.667v0h1.347c0.007 0 0.016 0 0.025 0 0.368 0 0.667-0.299 0.667-0.667s-0.299-0.667-0.667-0.667c-0.008 0-0.017 0-0.025 0l0.001-0zM7.965 0h-1.348c-0.368 0-0.667 0.298-0.667 0.667s0.298 0.667 0.667 0.667v0h1.348c0.368 0 0.667-0.298 0.667-0.667s-0.298-0.667-0.667-0.667v0zM19.333 8.667c-0.368 0-0.667 0.298-0.667 0.667v0 0.667c0 0.368 0.298 0.667 0.667 0.667s0.667-0.298 0.667-0.667v0-0.667c0-0.368-0.298-0.667-0.667-0.667v0z"></path>
<path d="M21.872 11.595l-2.067-2.067c-0.377-0.376-0.897-0.608-1.471-0.608s-1.094 0.232-1.471 0.608l0-0c-0.229 0.228-0.404 0.51-0.507 0.824l-0.004 0.015c-0.726-0.253-1.596-0.065-2.156 0.495-0.285 0.285-0.488 0.653-0.569 1.064l-0.002 0.013c-0.085-0.012-0.184-0.019-0.284-0.019-0.577 0-1.099 0.232-1.478 0.609l0-0c-0.377 0.376-0.61 0.896-0.61 1.47 0 0.051 0.002 0.103 0.006 0.153l-0-0.007c-0.468 0.065-0.878 0.279-1.189 0.591l-0 0c-0.376 0.375-0.609 0.893-0.609 1.466 0 0.002 0 0.004 0 0.007v-0c0 0.556 0.216 1.080 0.609 1.472l0.598 0.597v2.391c0 1.837 1.496 3.333 3.333 3.333h2.733c4.007 0 7.267-3.26 7.267-7.267 0-1.94-0.756-3.765-2.128-5.139zM16.733 22.667h-2.733c-1.104-0.001-1.999-0.896-2-2v-1.057l1.529 1.529c0.121 0.12 0.287 0.195 0.471 0.195s0.351-0.075 0.471-0.195v0c0.12-0.121 0.195-0.288 0.195-0.472s-0.074-0.351-0.195-0.472l-3.46-3.46c-0.135-0.134-0.219-0.32-0.219-0.525 0-0.001 0-0.002 0-0.003v0c0-0.199 0.077-0.387 0.219-0.528 0.283-0.283 0.775-0.283 1.057 0l1.46 1.46c0.121 0.12 0.287 0.195 0.471 0.195s0.351-0.075 0.471-0.195v0c0.12-0.121 0.194-0.288 0.194-0.471s-0.074-0.35-0.194-0.471l-1.667-1.667c-0.135-0.135-0.219-0.322-0.219-0.529s0.084-0.393 0.219-0.529v0c0.283-0.283 0.775-0.283 1.057 0l1 1c0.121 0.12 0.287 0.195 0.471 0.195s0.351-0.075 0.471-0.195v0c0.12-0.121 0.194-0.287 0.194-0.471s-0.074-0.35-0.194-0.471l-0.667-0.667c-0.135-0.135-0.219-0.322-0.219-0.529s0.084-0.393 0.219-0.529v0c0.283-0.283 0.775-0.283 1.057 0l0.667 0.667c0.121 0.12 0.287 0.195 0.471 0.195s0.351-0.075 0.471-0.195v0c0.12-0.121 0.194-0.287 0.194-0.471s-0.075-0.352-0.195-0.473l0 0c-0.135-0.134-0.219-0.319-0.219-0.524 0-0.001 0-0.003 0-0.004v0c0-0.2 0.079-0.388 0.22-0.528 0.135-0.135 0.322-0.219 0.529-0.219s0.393 0.084 0.529 0.219l2.067 2.067c1.073 1.068 1.737 2.546 1.737 4.179 0 0.005 0 0.011-0 0.016v-0.001c0 3.272-2.661 5.933-5.933 5.933z"></path>
</symbol>
<symbol id="icon-custom-domain" viewBox="0 0 36 32">
<path d="M21.612 11.747c-3.383 0-6.135 2.752-6.135 6.135s2.752 6.135 6.135 6.135c3.383 0 6.135-2.752 6.135-6.135s-2.752-6.135-6.135-6.135zM21.612 22.623c-2.614 0-4.741-2.127-4.741-4.741s2.127-4.74 4.741-4.74 4.741 2.127 4.741 4.74c0 2.614-2.127 4.741-4.741 4.741z"></path>
<path d="M21.612 14.745c-0.005-0-0.011-0-0.018-0-0.385 0-0.697 0.312-0.697 0.697s0.312 0.697 0.697 0.697c0.006 0 0.012-0 0.018-0l-0.001 0c0.962 0.001 1.741 0.781 1.743 1.743v0c-0 0.005-0 0.011-0 0.018 0 0.385 0.312 0.697 0.697 0.697s0.697-0.312 0.697-0.697c0-0.006-0-0.012-0-0.018l0 0.001c-0.002-1.732-1.405-3.135-3.137-3.137h-0zM4.298 5.292c-0.123-0.211-0.348-0.351-0.605-0.351-0.385 0-0.698 0.312-0.698 0.698 0 0.107 0.024 0.208 0.067 0.298l-0.002-0.004 1.876 3.625c0.121 0.235 0.367 0.378 0.63 0.376 0.271-0.005 0.504-0.163 0.616-0.391l0.002-0.004 1.136-2.365 1.234 2.384c0.12 0.231 0.359 0.376 0.619 0.376h0.010c0.271-0.004 0.505-0.163 0.616-0.391l0.002-0.004 1.741-3.625c0.038-0.083 0.060-0.181 0.060-0.284 0-0.385-0.312-0.697-0.697-0.697-0.268 0-0.501 0.152-0.618 0.374l-0.002 0.004-1.136 2.365-1.234-2.384c-0.119-0.225-0.351-0.376-0.619-0.376-0.275 0-0.513 0.159-0.627 0.39l-0.002 0.004-1.136 2.366-1.234-2.384zM8.784 1.429c0.192-0.001 0.367-0.079 0.493-0.204l-0 0c0.13-0.13 0.204-0.31 0.204-0.493s-0.075-0.363-0.204-0.493c-0.127-0.126-0.301-0.204-0.493-0.204h-0c-0.192 0.001-0.366 0.079-0.492 0.204l0-0c-0.126 0.127-0.204 0.301-0.204 0.493v0c0 0.183 0.075 0.363 0.204 0.492s0.309 0.204 0.493 0.204z"></path>
<path d="M35.695 12.026v-9.203c-0.002-1.54-1.249-2.787-2.789-2.789h-21.195c-0.385 0-0.697 0.312-0.697 0.697s0.312 0.697 0.697 0.697v0h21.195c0.77 0.001 1.393 0.625 1.394 1.394v9.203c-0.001 0.77-0.625 1.393-1.394 1.394h-3.347c-0.020 0-0.040 0.001-0.059 0.003-1.092-1.899-2.795-3.343-4.837-4.078l-0.064-0.020 1.033-2.152 1.234 2.384c0.12 0.232 0.359 0.376 0.619 0.376h0.011c0.271-0.005 0.504-0.163 0.616-0.391l0.002-0.004 1.741-3.625c0.045-0.090 0.072-0.196 0.072-0.308 0-0.385-0.312-0.697-0.697-0.697-0.278 0-0.518 0.163-0.63 0.398l-0.002 0.004-1.136 2.365-1.234-2.384c-0.118-0.226-0.351-0.378-0.619-0.378-0.276 0-0.514 0.16-0.627 0.392l-0.002 0.004-1.136 2.366-1.234-2.384c-0.122-0.215-0.349-0.357-0.609-0.357-0.385 0-0.698 0.312-0.698 0.698 0 0.109 0.025 0.213 0.070 0.305l-0.002-0.004 1.543 2.98c-0.393-0.060-0.846-0.095-1.307-0.095-0.88 0-1.73 0.126-2.534 0.36l0.064-0.016 1.56-3.248c0.043-0.088 0.069-0.192 0.069-0.302 0-0.385-0.312-0.697-0.697-0.697-0.275 0-0.513 0.16-0.627 0.391l-0.002 0.004-1.136 2.365-1.234-2.384c-0.118-0.226-0.351-0.377-0.619-0.377-0.275 0-0.513 0.16-0.627 0.392l-0.002 0.004-1.136 2.366-1.234-2.384c-0.12-0.22-0.35-0.366-0.614-0.366-0.385 0-0.697 0.312-0.697 0.697 0 0.113 0.027 0.22 0.074 0.314l-0.002-0.004 1.877 3.625c0.119 0.225 0.351 0.376 0.619 0.376 0.275 0 0.513-0.159 0.627-0.39l0.002-0.004 1.136-2.365 1.234 2.384c0.021 0.040 0.046 0.076 0.074 0.111-1.725 0.822-3.114 2.112-4.034 3.707l-0.023 0.044h-10.938c-0.77-0.001-1.394-0.624-1.395-1.394v-9.202c0.001-0.77 0.625-1.394 1.395-1.394h2.858c0.385 0 0.697-0.312 0.697-0.697s-0.312-0.697-0.697-0.697v0h-2.858c-1.539 0.002-2.787 1.25-2.788 2.789v9.203c0.002 1.539 1.25 2.787 2.789 2.788h10.295c-0.339 0.91-0.535 1.962-0.535 3.059 0 0.003 0 0.006 0 0.009v-0c0 4.998 4.066 9.063 9.063 9.063 1.642 0 3.184-0.439 4.514-1.206l5.533 5.533c0.427 0.427 1.016 0.691 1.667 0.691 0.001 0 0.003 0 0.004 0h-0c0.001 0 0.003 0 0.005 0 0.651 0 1.241-0.264 1.667-0.691l0-0c0.427-0.428 0.691-1.019 0.691-1.672s-0.264-1.244-0.691-1.672l-2.174-2.174c-0.125-0.118-0.293-0.19-0.479-0.19-0.385 0-0.697 0.312-0.697 0.697 0 0.186 0.073 0.354 0.191 0.479l2.173 2.174c0.378 0.378 0.378 0.993 0 1.372s-0.993 0.378-1.371 0l-5.35-5.35c2.060-1.663 3.38-4.207 3.38-7.055 0-1.076-0.189-2.109-0.535-3.068h2.765c1.539-0.002 2.787-1.249 2.789-2.788v-0zM21.612 25.551c-4.228 0-7.669-3.44-7.669-7.669s3.44-7.669 7.669-7.669 7.669 3.44 7.669 7.669-3.44 7.669-7.669 7.669z"></path>
<path d="M30.189 24.102c-0.126 0.126-0.204 0.3-0.204 0.492v0c0 0.184 0.075 0.363 0.204 0.493s0.309 0.204 0.493 0.204c0.183 0 0.363-0.075 0.493-0.204s0.204-0.309 0.204-0.493c-0.001-0.385-0.313-0.696-0.698-0.697h-0c-0.183 0-0.363 0.074-0.492 0.204z"></path>
</symbol>
<symbol id="icon-no-limit" viewBox="0 0 64 32">
<path d="M63.188 16.982c-0.038-0.006-0.083-0.009-0.128-0.009-0.474 0-0.866 0.351-0.93 0.807l-0.001 0.005c-0.487 3.447-2.169 6.432-4.607 8.58l-0.015 0.013c-2.447 2.16-5.682 3.479-9.224 3.479-0.002 0-0.004 0-0.006 0h0c-1.851 0-3.648-0.356-5.342-1.057-0.023-0.010-0.053-0.021-0.083-0.030l-0.007-0.002c-0.020-0.005-2.020-0.631-4.996-2.994-0.157-0.122-0.356-0.195-0.573-0.195-0.518 0-0.939 0.42-0.939 0.939 0 0.292 0.134 0.554 0.343 0.726l0.002 0.001c3.054 2.425 5.2 3.186 5.574 3.307 1.911 0.785 3.938 1.183 6.022 1.183 3.858 0 7.576-1.402 10.47-3.947 2.782-2.452 4.691-5.838 5.233-9.664l0.010-0.084c0.006-0.038 0.009-0.083 0.009-0.128 0-0.474-0.351-0.865-0.806-0.929l-0.005-0.001z"></path>
<path d="M40.596 22.373c1.993 1.775 4.471 3.591 7.745 3.591h0.004c5.561-0.003 10.085-4.529 10.085-10.089 0-5.564-4.526-10.089-10.089-10.089-3.836 0-6.451 2.227-8.3 4.167-2.706 2.839-8.842 10.12-9.065 10.402-5.884 7.446-9.378 8.342-9.569 8.387-0.076 0.010-0.145 0.031-0.209 0.061l0.004-0.002c-1.4 0.596-3.025 0.973-4.729 1.044l-0.028 0.001-0.596 0.012c-0.009 0-0.019 0-0.029 0-3.867 0-7.366-1.581-9.883-4.132l-0.001-0.002c-2.508-2.512-4.059-5.981-4.059-9.812 0-0.050 0-0.101 0.001-0.151l-0 0.008c0.027-3.724 1.516-7.223 4.191-9.853 2.644-2.598 6.116-4.024 9.791-4.024h0.142c1.817 0.016 3.545 0.378 5.128 1.023l-0.093-0.034c0.1 0.039 0.198 0.078 0.298 0.116 0.489 0.183 4.796 1.923 9.644 8.077 0 0-2.084 2.544-2.565 3.116-1.558-1.692-3.147-3.262-4.808-4.755l-0.065-0.057c-1.991-1.776-4.469-3.591-7.744-3.591h-0.004c-0.334 0-0.673 0.016-1.004 0.049-0.477 0.049-0.846 0.448-0.846 0.934 0 0.518 0.42 0.939 0.939 0.939 0.033 0 0.065-0.002 0.097-0.005l-0.004 0c0.27-0.027 0.546-0.041 0.82-0.041h0.004c1.484 0 3.416 0.372 6.494 3.116 1.732 1.559 3.327 3.141 4.844 4.798l0.047 0.052c-1.559 1.786-3.010 3.372-4.496 4.926l0.051-0.054c-2.364 2.48-4.504 3.586-6.941 3.586-4.527 0-8.211-3.684-8.211-8.212 0-0.002 0-0.004 0-0.006 0-2.839 1.442-5.341 3.633-6.814l0.029-0.019c0.253-0.171 0.418-0.457 0.418-0.781 0-0.518-0.42-0.939-0.939-0.939-0.194 0-0.375 0.059-0.524 0.16l0.003-0.002c-2.727 1.833-4.498 4.906-4.498 8.393 0 0.003 0 0.005 0 0.008v-0c0 5.564 4.525 10.089 10.089 10.089 3.836 0 6.45-2.227 8.299-4.167 2.706-2.839 9.232-10.613 9.232-10.613 0.004-0.004 0.009-0.009 0.012-0.014 5.776-7.239 9.201-8.117 9.39-8.161 0.076-0.010 0.145-0.031 0.209-0.061l-0.004 0.002c1.511-0.626 3.112-0.978 4.757-1.045l0.595-0.012c6.949 0.003 12.712 5.075 13.794 11.719l0.011 0.081c0.082 0.442 0.464 0.773 0.924 0.773 0.518 0 0.939-0.42 0.939-0.939 0-0.044-0.003-0.087-0.009-0.13l0.001 0.005c-1.24-7.631-7.782-13.385-15.667-13.386h-0.020l-0.634 0.014c-1.936 0.079-3.754 0.495-5.426 1.19l0.104-0.038c-0.785 0.174-4.351 1.324-10.103 8.413-4.948-6.16-9.342-8.030-10.207-8.354-0.174-0.062-0.26-0.096-0.346-0.131l0.085 0.031c-1.69-0.694-3.65-1.105-5.705-1.123l-0.007-0c-4.232-0.044-8.231 1.578-11.267 4.562s-4.723 6.953-4.754 11.179c-0.001 0.048-0.001 0.104-0.001 0.161 0 4.346 1.76 8.281 4.605 11.132l-0-0c2.857 2.894 6.824 4.686 11.21 4.686 0.016 0 0.032-0 0.047-0h0.017l0.634-0.012c1.936-0.079 3.754-0.495 5.426-1.19l-0.104 0.038c0.775-0.172 4.256-1.294 9.87-8.128 0.536 0.613 1.081 1.204 1.625 1.76 0.169 0.167 0.402 0.27 0.658 0.27 0.518 0 0.939-0.42 0.939-0.939 0-0.249-0.097-0.475-0.254-0.643l0 0c-0.586-0.6-1.161-1.227-1.718-1.87l-0.045-0.054c0.492-0.596 2.332-2.836 2.814-3.409 1.558 1.692 3.148 3.263 4.808 4.756l0.065 0.057zM41.4 11.249c2.363-2.48 4.503-3.585 6.94-3.585 4.527 0 8.212 3.684 8.212 8.212 0 4.525-3.683 8.209-8.209 8.211h-0.003c-1.484 0-3.417-0.371-6.495-3.115-1.732-1.559-3.327-3.142-4.844-4.798l-0.047-0.052c1.559-1.785 3.011-3.371 4.497-4.924l-0.051 0.053z"></path>
</symbol>
<symbol id="icon-responsive" viewBox="0 0 32 32">
<path d="M13.864 14.522c0-0.291-0.235-0.526-0.526-0.526h-11.17c-0.29 0-0.526 0.236-0.526 0.526v13.864c0 0.29 0.236 0.525 0.526 0.525h11.17c0.291 0 0.526-0.236 0.526-0.525v-13.864zM12.813 27.86h-10.119v-12.813h10.119v12.813zM8.283 29.372h-1.053c-0.29 0-0.526 0.235-0.526 0.526s0.235 0.526 0.526 0.526v0h1.053c0.29 0 0.526-0.235 0.526-0.526s-0.235-0.526-0.526-0.526v0z"></path>
<path d="M30.369 0h-7.125c-0.879 0-1.626 0.687-1.626 1.566v2.771h-16.155c-1.639 0.005-2.966 1.335-2.966 2.975 0 0 0 0.001 0 0.001v-0 5.040h-0.322c-1.212 0-2.175 1.008-2.175 2.221v15.186c-0 0.004-0 0.008-0 0.013 0 1.194 0.968 2.162 2.162 2.162 0.005 0 0.010-0 0.015-0h11.593c0.004 0 0.009 0 0.015 0 0.488 0 0.929-0.201 1.245-0.525l0-0c0.33-0.34 0.543-0.772 0.477-1.244v-2.568h12.256c1.645-0.003 2.978-1.332 2.988-2.975v-1.881c-0.008-0.295-0.248-0.531-0.543-0.532h-0.771v-5.125h0.931c0.879 0 1.566-0.746 1.566-1.625v-13.894c0-0.005 0-0.012 0-0.018 0-0.855-0.693-1.548-1.548-1.548-0.006 0-0.012 0-0.018 0h0.001zM22.669 3.417h8.213v9.396h-8.213v-9.396zM23.244 1.052h7.124c0.005-0 0.011-0 0.017-0 0.275 0 0.498 0.223 0.498 0.498 0 0.006-0 0.012-0 0.018l0-0.001v0.8h-8.213v-0.8c0-0.299 0.275-0.514 0.574-0.514zM3.548 7.313c0-0.001 0-0.001 0-0.002 0-1.059 0.856-1.918 1.914-1.923h16.156v1.511h-16.187c-0.291 0-0.503 0.264-0.503 0.554v4.9h-1.38v-5.040zM14.292 30.677c-0.138 0.137-0.327 0.212-0.521 0.206h-11.592c-0.005 0-0.010 0-0.016 0-0.614 0-1.111-0.497-1.111-1.111 0-0.005 0-0.010 0-0.015v0.001-15.182c0-0.636 0.492-1.171 1.125-1.171h11.156c0.636 0 1.124 0.536 1.124 1.169v15.6c0 0.005 0.016 0.003 0.016 0.009 0.012 0.183-0.054 0.362-0.181 0.495zM13.334 12.353h-7.355v-4.402h15.638v7.508c0.014 0.892 0.734 1.612 1.625 1.625h2.712v5.125h-6.401c-0.147 0.001-0.287 0.064-0.387 0.173l-0.496 0.531c-0.351 0.376-0.849 0.611-1.403 0.611-0.003 0-0.006 0-0.009-0h-1.752v-8.951c0-1.212-0.96-2.219-2.173-2.219zM29.7 24.621c-0.009 1.064-0.872 1.922-1.937 1.925h-12.256v-1.971h1.753c0.001 0 0.003 0 0.005 0 0.86 0 1.635-0.365 2.178-0.949l0.002-0.002 0.34-0.363h9.916v1.36zM28.386 22.209h-1.38v-5.125h1.38v5.125zM30.368 16.033h-7.124c-0.312-0.013-0.562-0.262-0.575-0.573l-0-0.001v-1.595h8.213v1.595c0 0.3-0.215 0.573-0.514 0.573z"></path>
<path d="M27.532 14.324h-1.38c-0.284 0.008-0.511 0.241-0.511 0.526s0.227 0.517 0.51 0.526l0.001 0h1.38c0.29 0 0.526-0.235 0.526-0.526s-0.235-0.526-0.526-0.526v0z"></path>
</symbol>
<symbol id="icon-arrow" viewBox="0 0 96 32">
<path stroke-linejoin="miter" stroke-linecap="butt" stroke-miterlimit="4" stroke-width="4.5714" d="M0 16h95.689"></path>
<path stroke-linejoin="miter" stroke-linecap="butt" stroke-miterlimit="4" stroke-width="4.5714" d="M80.979 2.286l13.714 13.714-13.714 13.714"></path>
</symbol>
<symbol id="icon-close" viewBox="0 0 34 32">
<path d="M31.398 0.16l1.508 1.508-14.332 14.332 14.332 14.332-1.508 1.508-14.332-14.332-14.332 14.332-1.508-1.508 14.332-14.332-14.332-14.332 1.508-1.508 14.332 14.332 14.332-14.332z"></path>
</symbol>
<symbol id="icon-facebook" viewBox="0 0 32 32">
<path d="M30.234 0h-28.467c-0.976 0-1.766 0.79-1.766 1.766v28.469c0 0.974 0.79 1.765 1.766 1.765h15.328v-12.392h-4.173v-4.829h4.17v-3.563c0-4.133 2.525-6.384 6.213-6.384 1.766 0 3.283 0.131 3.726 0.19v4.32h-2.557c-2.006 0-2.394 0.955-2.394 2.352v3.085h4.782l-0.624 4.829h-4.16v12.392h8.157c0.973 0 1.763-0.79 1.763-1.766v-28.467c0.002-0.976-0.789-1.766-1.765-1.766z"></path>

</symbol>
<symbol id="icon-instagram" viewBox="0 0 34 32">
<path d="M16.512 2.883c4.272 0 4.779 0.016 6.467 0.094 4.336 0.197 6.362 2.254 6.558 6.558 0.077 1.686 0.091 2.192 0.091 6.464 0 4.275-0.016 4.781-0.091 6.467-0.198 4.299-2.219 6.36-6.56 6.558-1.686 0.077-2.192 0.093-6.466 0.093-4.272 0-4.779-0.016-6.464-0.093-4.349-0.198-6.363-2.266-6.56-6.56-0.077-1.686-0.093-2.192-0.093-6.466 0-4.272 0.016-4.778 0.093-6.464 0.198-4.304 2.219-6.363 6.56-6.56 1.686-0.077 2.192-0.093 6.464-0.093zM16.512 0c-4.346 0-4.89 0.019-6.597 0.096-5.81 0.267-9.040 3.491-9.306 9.307-0.080 1.707-0.098 2.251-0.098 6.597s0.019 4.891 0.096 6.597c0.267 5.811 3.491 9.040 9.307 9.307 1.707 0.077 2.251 0.096 6.597 0.096s4.891-0.019 6.597-0.096c5.806-0.267 9.043-3.491 9.306-9.307 0.080-1.706 0.098-2.251 0.098-6.597s-0.019-4.89-0.096-6.595c-0.261-5.806-3.488-9.040-9.306-9.307-1.707-0.082-2.253-0.098-6.598-0.098zM16.512 7.784c-4.538 0-8.216 3.678-8.216 8.216s3.678 8.216 8.216 8.216v0c4.538 0 8.216-3.678 8.216-8.216s-3.678-8.216-8.216-8.216v0zM16.512 21.333c-2.945 0-5.333-2.388-5.333-5.333s2.388-5.333 5.333-5.333v0c2.945 0 5.333 2.388 5.333 5.333s-2.388 5.333-5.333 5.333v0zM25.053 5.541c-1.060 0-1.92 0.86-1.92 1.92s0.86 1.92 1.92 1.92v0c1.060 0 1.92-0.86 1.92-1.92s-0.86-1.92-1.92-1.92v0z"></path>
</symbol>
<symbol id="icon-logo" viewBox="0 0 340 32">
<path d="M62.216 31.136v-9.082h5.406c1.672 0 3.2-0.266 4.584-0.8 1.378-0.523 2.558-1.279 3.55-2.23l-0.004 0.003c0.958-0.931 1.732-2.045 2.267-3.286l0.025-0.066c0.519-1.211 0.821-2.621 0.821-4.101 0-0.040-0-0.080-0.001-0.121l0 0.006c0-1.5-0.274-2.898-0.82-4.196-0.556-1.316-1.331-2.437-2.29-3.37l-0.002-0.002c-0.988-0.948-2.168-1.704-3.475-2.204l-0.071-0.024c-1.384-0.532-2.912-0.8-4.584-0.8h-13.622v30.272h8.216zM67.19 14.702h-4.974v-6.486h4.974c0.98 0 1.8 0.324 2.464 0.974 0.664 0.648 0.994 1.404 0.994 2.27 0 0.864-0.33 1.62-0.994 2.27-0.664 0.648-1.484 0.972-2.464 0.972zM92.27 31.136v-11.676h11.028v11.676h8.216v-30.272h-8.216v11.244h-11.028v-11.244h-8.216v30.272h8.216zM133.568 32c0.038 0 0.084 0.001 0.129 0.001 2.347 0 4.584-0.469 6.623-1.319l-0.114 0.042c2.078-0.854 3.857-2.030 5.365-3.485l-0.005 0.005c1.471-1.425 2.673-3.118 3.528-5.001l0.042-0.103c0.819-1.784 1.296-3.871 1.296-6.070 0-0.025-0-0.049-0-0.074v0.004c0-0.021 0-0.046 0-0.071 0-2.198-0.477-4.285-1.334-6.162l0.038 0.093c-0.897-1.986-2.098-3.679-3.564-5.1l-0.004-0.004c-1.503-1.451-3.283-2.626-5.25-3.439l-0.112-0.041c-1.925-0.807-4.162-1.276-6.509-1.276-0.046 0-0.092 0-0.138 0.001l0.007-0c-2.392 0-4.612 0.426-6.658 1.276-2.070 0.858-3.842 2.033-5.345 3.485l0.005-0.005c-1.47 1.425-2.671 3.118-3.526 5.001l-0.042 0.103c-0.82 1.785-1.298 3.874-1.298 6.073 0 0.023 0 0.047 0 0.070v-0.004c0 2.162 0.434 4.21 1.298 6.14 0.897 1.986 2.098 3.679 3.564 5.1l0.004 0.004c1.498 1.447 3.27 2.622 5.228 3.439l0.112 0.041c2.046 0.85 4.266 1.276 6.66 1.276zM133.568 24.648c-0.018 0-0.039 0-0.060 0-1.179 0-2.303-0.238-3.326-0.669l0.056 0.021c-1.047-0.436-1.939-1.050-2.678-1.814l-0.002-0.002c-0.739-0.771-1.338-1.682-1.753-2.688l-0.021-0.058c-0.41-0.99-0.648-2.14-0.648-3.346 0-0.032 0-0.064 0.001-0.097l-0 0.005c0-1.24 0.216-2.386 0.648-3.438 0.436-1.064 1.034-1.975 1.775-2.749l-0.003 0.003c0.75-0.78 1.644-1.384 2.68-1.816 0.966-0.41 2.090-0.648 3.27-0.648 0.022 0 0.044 0 0.066 0l-0.003-0c1.18 0 2.284 0.216 3.308 0.648s1.916 1.038 2.68 1.816c0.764 0.78 1.362 1.694 1.796 2.746 0.432 1.052 0.648 2.2 0.648 3.438 0 1.24-0.216 2.386-0.648 3.438-0.438 1.067-1.045 1.978-1.798 2.748l0.001-0.002c-0.764 0.78-1.656 1.384-2.68 1.816-0.956 0.41-2.070 0.648-3.238 0.648-0.024 0-0.049-0-0.073-0l0.004 0zM169.676 31.136v-22.92h8.432v-7.352h-25.080v7.352h8.432v22.92h8.216zM197.568 32c0.038 0 0.084 0.001 0.129 0.001 2.347 0 4.584-0.469 6.623-1.319l-0.114 0.042c2.078-0.854 3.857-2.030 5.365-3.485l-0.005 0.005c1.471-1.425 2.673-3.118 3.528-5.001l0.042-0.103c0.819-1.784 1.296-3.871 1.296-6.070 0-0.025-0-0.049-0-0.074v0.004c0-0.021 0-0.046 0-0.071 0-2.198-0.477-4.285-1.334-6.162l0.038 0.093c-0.897-1.986-2.098-3.679-3.564-5.1l-0.004-0.004c-1.503-1.451-3.283-2.626-5.25-3.439l-0.112-0.041c-1.925-0.807-4.162-1.276-6.509-1.276-0.046 0-0.092 0-0.138 0.001l0.007-0c-2.392 0-4.612 0.426-6.658 1.276-2.070 0.858-3.842 2.033-5.345 3.485l0.005-0.005c-1.47 1.425-2.671 3.118-3.526 5.001l-0.042 0.103c-0.82 1.785-1.298 3.874-1.298 6.073 0 0.023 0 0.047 0 0.070v-0.004c0 2.162 0.434 4.21 1.298 6.14 0.897 1.986 2.098 3.679 3.564 5.1l0.004 0.004c1.498 1.447 3.27 2.622 5.228 3.439l0.112 0.041c2.046 0.85 4.266 1.276 6.66 1.276zM197.568 24.648c-0.018 0-0.039 0-0.060 0-1.179 0-2.303-0.238-3.326-0.669l0.056 0.021c-1.047-0.436-1.939-1.050-2.678-1.814l-0.002-0.002c-0.739-0.771-1.338-1.682-1.753-2.688l-0.021-0.058c-0.41-0.99-0.648-2.14-0.648-3.346 0-0.032 0-0.064 0-0.097l-0 0.005c0-1.24 0.216-2.386 0.648-3.438 0.436-1.064 1.034-1.975 1.775-2.749l-0.003 0.003c0.75-0.78 1.644-1.384 2.68-1.816 0.966-0.41 2.090-0.648 3.27-0.648 0.022 0 0.044 0 0.066 0l-0.003-0c1.18 0 2.284 0.216 3.308 0.648s1.916 1.038 2.68 1.816c0.764 0.78 1.362 1.694 1.796 2.746 0.432 1.052 0.648 2.2 0.648 3.438 0 1.24-0.216 2.386-0.648 3.438-0.438 1.067-1.045 1.978-1.798 2.748l0.001-0.002c-0.764 0.78-1.656 1.384-2.68 1.816-0.956 0.41-2.070 0.648-3.238 0.648-0.024 0-0.049-0-0.073-0l0.004 0zM229.136 32c1.9 0 3.602-0.266 5.1-0.8 1.5-0.534 2.77-1.254 3.808-2.162s1.83-1.96 2.378-3.156c0.548-1.198 0.82-2.472 0.82-3.828 0-1.76-0.344-3.2-1.036-4.324-0.67-1.098-1.54-2.008-2.566-2.705l-0.030-0.019c-0.977-0.658-2.1-1.216-3.295-1.615l-0.099-0.029-3.394-1.124c-1.002-0.322-1.86-0.695-2.672-1.141l0.078 0.039c-0.692-0.39-1.040-0.93-1.040-1.622 0-0.664 0.296-1.26 0.888-1.796 0.59-0.532 1.376-0.8 2.356-0.8 0.75 0 1.428 0.124 2.032 0.368 0.606 0.246 1.126 0.526 1.558 0.844 0.52 0.346 0.98 0.734 1.384 1.168l4.756-4.974c-0.732-0.836-1.572-1.551-2.505-2.133l-0.047-0.027c-0.864-0.55-1.96-1.046-3.286-1.494-1.324-0.446-2.912-0.67-4.756-0.67-1.73 0-3.3 0.26-4.714 0.78-1.412 0.518-2.616 1.21-3.61 2.074-0.996 0.864-1.766 1.86-2.314 2.984-0.513 1.008-0.816 2.198-0.82 3.459v0.001c0 1.758 0.344 3.2 1.036 4.324 0.67 1.098 1.538 2.008 2.564 2.705l0.030 0.019c0.977 0.658 2.101 1.216 3.297 1.615l0.099 0.029c1.224 0.402 2.356 0.778 3.394 1.124s1.902 0.714 2.594 1.102c0.692 0.39 1.040 0.93 1.040 1.62 0 0.866-0.348 1.624-1.040 2.272s-1.642 0.974-2.854 0.974c-0.98 0-1.866-0.166-2.66-0.5-0.787-0.322-1.462-0.691-2.091-1.124l0.037 0.024c-0.664-0.492-1.244-1.032-1.76-1.63l-0.012-0.014-4.756 4.972c0.864 0.98 1.888 1.846 3.070 2.596 1.008 0.662 2.262 1.26 3.76 1.794 1.5 0.534 3.26 0.8 5.278 0.8zM254.216 31.136v-16.866l13.016 16.866h7.092v-30.272h-8.216v16.866l-12.972-16.866h-7.136v30.272h8.216zM286.648 31.136l2.162-6.488h9.946l2.162 6.488h8.866l-11.46-30.272h-9.080l-11.46 30.272h8.864zM296.594 18.162h-5.62l2.81-8.864 2.81 8.864zM321.46 31.136v-9.082h5.404c1.672 0 3.2-0.266 4.584-0.8 1.378-0.523 2.558-1.279 3.55-2.23l-0.004 0.003c0.958-0.931 1.732-2.045 2.267-3.286l0.025-0.066c0.52-1.211 0.823-2.62 0.823-4.099 0-0.041-0-0.082-0.001-0.123l0 0.006c0-1.5-0.274-2.898-0.82-4.196-0.557-1.316-1.332-2.437-2.292-3.37l-0.002-0.002c-0.988-0.948-2.168-1.704-3.475-2.204l-0.071-0.024c-1.384-0.532-2.912-0.8-4.584-0.8h-13.62v30.272h8.216zM326.432 14.702h-4.972v-6.486h4.972c0.98 0 1.802 0.324 2.466 0.974 0.662 0.648 0.994 1.404 0.994 2.27 0 0.864-0.332 1.62-0.994 2.27-0.664 0.648-1.486 0.972-2.466 0.972z"></path>
<path d="M0 32l19-32 19 32z"></path>
</symbol>
<symbol id="icon-menu" viewBox="0 0 107 32">
<path d="M0 0h106.667v5.333h-106.667zM0 26.667h106.667v5.333h-106.667z"></path>
</symbol>
<symbol id="icon-pinterest" viewBox="0 0 32 32">
<path d="M15.984 0c-8.835 0-16 7.163-16 16 0 6.779 4.218 12.568 10.17 14.899-0.141-1.266-0.267-3.208 0.056-4.589 0.29-1.248 1.875-7.952 1.875-7.952s-0.478-0.96-0.478-2.378c0-2.224 1.29-3.885 2.896-3.885 1.363 0 2.022 1.024 2.022 2.253 0 1.373-0.874 3.424-1.325 5.328-0.378 1.592 0.8 2.891 2.368 2.891 2.845 0 5.030-2.998 5.030-7.328 0-3.829-2.752-6.509-6.682-6.509-4.552 0-7.224 3.416-7.224 6.944 0 1.374 0.528 2.85 1.19 3.65 0.080 0.086 0.129 0.201 0.129 0.328 0 0.047-0.007 0.093-0.020 0.137l0.001-0.003-0.445 1.813c-0.070 0.293-0.232 0.357-0.536 0.214-1.998-0.93-3.248-3.851-3.248-6.198 0-5.046 3.667-9.683 10.573-9.683 5.55 0 9.864 3.957 9.864 9.242 0 5.515-3.477 9.952-8.304 9.952-1.621 0-3.144-0.84-3.666-1.837l-0.997 3.805c-0.362 1.39-1.336 3.133-1.99 4.194 1.499 0.464 3.090 0.714 4.739 0.714 8.837 0 16-7.163 16-16s-7.163-16-16-16z"></path>
</symbol>
<symbol id="icon-twitter" viewBox="0 0 37 32">
<path d="M36.729 4.972c-1.22 0.556-2.636 0.96-4.12 1.141l-0.070 0.007c1.51-0.913 2.644-2.315 3.194-3.984l0.015-0.052c-1.334 0.805-2.886 1.42-4.539 1.755l-0.094 0.016c-1.332-1.42-3.22-2.304-5.315-2.304-0.003 0-0.007 0-0.010 0h0.001c-4.711 0-8.171 4.395-7.108 8.956-6.077-0.313-11.422-3.201-15.005-7.584l-0.029-0.037c-0.62 1.051-0.987 2.316-0.987 3.666 0 2.521 1.277 4.743 3.219 6.056l0.026 0.016c-1.218-0.039-2.351-0.373-3.339-0.931l0.036 0.019c-0.080 3.38 2.343 6.542 5.851 7.244-0.575 0.162-1.234 0.256-1.916 0.256-0.487 0-0.964-0.048-1.425-0.139l0.046 0.008c0.959 2.922 3.635 5.006 6.807 5.067l0.007 0c-2.467 1.949-5.622 3.127-9.052 3.127-0.616 0-1.223-0.038-1.819-0.112l0.071 0.007c3.155 2.055 7.016 3.276 11.162 3.276 0.007 0 0.014 0 0.021 0h-0.001c13.543 0 21.195-11.438 20.732-21.698 1.433-1.044 2.641-2.296 3.607-3.724l0.033-0.052z"></path>
</symbol>
<symbol id="icon-youtube" viewBox="0 0 34 32">
<path d="M16.528 0c-8.837 0-16 7.165-16 16 0 8.837 7.163 16 16 16s16-7.163 16-16c0-8.835-7.163-16-16-16zM22.448 22.523c-2.8 0.192-9.045 0.192-11.843 0-3.034-0.208-3.387-1.694-3.41-6.523 0.022-4.838 0.379-6.315 3.41-6.523 2.8-0.192 9.043-0.192 11.845 0 3.035 0.208 3.387 1.694 3.411 6.523-0.024 4.838-0.379 6.315-3.411 6.523zM13.861 12.877l6.557 3.118-6.557 3.128v-6.246z"></path>
</symbol>
<symbol id="icon-check" viewBox="0 0 38 32">
<path stroke-linejoin="miter" stroke-linecap="butt" stroke-miterlimit="4" stroke-width="4.2667" d="M2.133 17.331l9.862 10.402 24.271-25.6"></path>
</symbol>
<symbol id="icon-drag-drop" viewBox="0 0 40 32">
<path d="M20.078 25.612c-1.745 0.002-3.16 1.416-3.162 3.162v0c0.002 1.745 1.416 3.16 3.162 3.162h0c1.746-0.002 3.16-1.416 3.162-3.162v-0c-0.002-1.746-1.417-3.16-3.162-3.162h-0zM20.078 30.355c-0.873-0.001-1.58-0.708-1.581-1.581v-0c0.001-0.873 0.708-1.58 1.581-1.581h0c0.873 0.001 1.58 0.708 1.581 1.581v0c-0.001 0.873-0.708 1.58-1.581 1.581h-0zM9.012 26.086c-1.484 0.002-2.686 1.204-2.688 2.687v0c0.002 1.484 1.204 2.686 2.687 2.688h0c1.484-0.002 2.686-1.204 2.688-2.687v-0c-0.002-1.484-1.204-2.686-2.687-2.688h-0zM9.012 29.88c-0.611-0.001-1.106-0.496-1.107-1.107v-0c0.001-0.611 0.496-1.106 1.107-1.107h0c0.611 0.001 1.106 0.496 1.107 1.107v0c-0.001 0.611-0.496 1.106-1.107 1.107h-0zM31.145 26.086c-1.483 0.002-2.685 1.204-2.687 2.687v0c0.002 1.484 1.204 2.686 2.687 2.688h0c1.484-0.002 2.686-1.204 2.688-2.687v-0c-0.002-1.484-1.204-2.686-2.687-2.688h-0zM31.145 29.88c-0.611-0.001-1.106-0.496-1.107-1.107v-0c0.001-0.611 0.496-1.106 1.107-1.107h0c0.611 0.001 1.106 0.496 1.107 1.107v0c-0.001 0.611-0.496 1.106-1.107 1.107h-0zM26.403 11.699c2.353 0 4.268-1.915 4.268-4.268s-1.915-4.269-4.269-4.269-4.268 1.915-4.268 4.269 1.915 4.268 4.268 4.268zM26.403 4.743c1.484 0.002 2.686 1.204 2.688 2.687v0c-0.002 1.484-1.204 2.686-2.688 2.688h-0c-1.484-0.002-2.686-1.204-2.688-2.687v-0c0.002-1.484 1.204-2.686 2.687-2.688h0zM39.366 11.151c0.436 0 0.791 0.355 0.791 0.79s-0.355 0.791-0.791 0.791c-0.436 0-0.79-0.355-0.79-0.791s0.355-0.79 0.79-0.79zM0.791 12.732c-0.437 0-0.791-0.354-0.791-0.791v-0c0-0.436 0.355-0.79 0.791-0.79s0.79 0.355 0.79 0.79c-0 0.436-0.354 0.79-0.79 0.791h-0zM37.785 2.343h-3.952v-1.552c0-0.437-0.354-0.791-0.79-0.791h-25.928c-0.436 0-0.79 0.354-0.79 0.791v1.581h-3.952c-1.31 0-2.372 1.062-2.372 2.372v0 3.614c0 0.42 0.316 0.788 0.736 0.817 0.016 0.001 0.035 0.002 0.054 0.002 0.437 0 0.791-0.354 0.792-0.79v-3.643c0.001-0.435 0.356-0.79 0.791-0.791h3.952v16.284h-3.952c-0.436-0.002-0.789-0.355-0.791-0.791v-3.947c0-0.453-0.385-0.82-0.845-0.788-0.42 0.028-0.736 0.396-0.736 0.817v3.919c0 1.31 1.062 2.371 2.372 2.371h3.952v1.581c0 0.436 0.354 0.79 0.79 0.79h25.928c0.436 0 0.79-0.354 0.79-0.79v-1.609h3.952c1.31 0 2.372-1.062 2.372-2.372v0-3.919c0-0.42-0.316-0.788-0.736-0.817-0.016-0.001-0.035-0.002-0.054-0.002-0.437 0-0.791 0.354-0.792 0.79v3.947c-0.002 0.436-0.355 0.789-0.791 0.791h-3.953v-16.284h3.952c0.435 0.001 0.79 0.356 0.791 0.791v3.643c0 0.453 0.385 0.82 0.845 0.788 0.42-0.028 0.736-0.396 0.736-0.817v-3.614c0-1.31-1.062-2.372-2.372-2.372v0zM32.252 1.581v20.724l-10.532-9.844c-1.342-1.255-3.444-1.255-4.786 0l-2.364 2.209-5.779-7.224c-0.231-0.288-0.529-0.512-0.872-0.65l-0.014-0.005v-5.21h24.347zM7.905 8.869l7.873 9.842c0.658 0.822 1.892-0.165 1.235-0.988l-1.452-1.814 2.452-2.293c0.343-0.32 0.805-0.516 1.314-0.516s0.97 0.196 1.315 0.517l-0.001-0.001 9.62 8.992h-22.356v-13.739z"></path>
</symbol>
</defs>
</svg>
